<?xml version="1.0" encoding="utf-8"?>
<!-- Generator: Adobe Illustrator 27.2.0, SVG Export Plug-In . SVG Version: 6.00 Build 0)  -->
<svg version="1.1" id="Layer_1" xmlns="http://www.w3.org/2000/svg" xmlns:xlink="http://www.w3.org/1999/xlink" x="0px" y="0px"
	 viewBox="0 0 16 16" style="enable-background:new 0 0 16 16;" xml:space="preserve">
<style type="text/css">
	.st0{fill:#C9A972;stroke:#000000;stroke-width:0.25;stroke-miterlimit:10;}
</style>
<g id="Layer_1_00000029022310042418045700000007123076647781043085_">
	<g>
		<path class="st0" d="M15.8,0.9c-0.3-0.3-0.6-0.4-0.9-0.5c-0.7-0.4-1.4-0.4-2.3-0.4S11,0.3,10.3,0.7c-0.1,0-0.1,0-0.2,0
			C9.6,0.7,9,0.4,8.5,0.3C7.7,0.2,7,0.1,6.2,0.1c-0.8-0.1-1.6,0-2.4,0.3C2.5,0.7,1.3,1.6,0.5,3.1C0.2,3.9,0,4.8,0,5.7
			C0,6,0.1,6.4,0.1,6.8C0.2,7.6,0.6,8.1,1,8.5c0.5,0.4,1,0.4,1.5,0.1C2.9,8.3,3.1,8,3,7.6c0-0.3-0.1-0.4-0.3-0.4s-0.3,0-0.5,0
			C2,7.2,1.8,7.3,1.8,7.6C1.7,8,1.8,8.3,2.3,8.3h0.1c0,0,0.1,0,0.1,0.1c0,0,0,0.1-0.1,0.1H2.3c-0.4,0.1-0.7,0-1-0.3
			C0.8,8.1,0.5,7.7,0.4,7.1C0.1,6.2,0.2,5.3,0.5,4.4c0.3-1.1,1-1.9,1.8-2.7c1.2-1,2.6-1.4,4-1.4c0.6,0,1.2,0,1.8,0.1
			c0.5,0.1,1.1,0.3,1.6,0.4c0.1,0,0.1,0,0.2,0.1c-0.1,0-0.1,0.1-0.1,0.1C9.7,1.2,9.5,1.3,9.3,1.6C8.9,2,8.7,2.5,8.6,3.2
			C8.5,3.9,8.8,4.5,9.2,4.9C9.3,5,9.4,5,9.5,5.2l0,0H9.4C8.9,5.3,8.4,5.4,8,5.5C7,5.8,6.1,6.2,5.3,6.8C4.6,7.5,4.1,8.1,3.7,9
			c-0.3,0.8-0.5,1.5-0.4,2.4c0.1,0.9,0.5,1.5,1,2.2c0.4,0.4,0.9,0.6,1.4,0.8c0.2,0.1,0.4,0.1,0.6,0.4c0.5,0.8,1.2,1.3,2,1.3
			c0.4,0,0.8,0,1.2,0c0.3,0,0.7-0.1,1-0.3c0.1,0,0.1-0.1,0.1-0.1s0,0,0-0.1c-0.1,0-0.1,0-0.2,0c-0.1,0-0.2,0.1-0.4,0.1
			c-0.7,0.3-1.5,0.3-2.3,0c-0.6-0.1-1.1-0.6-1.4-1.1c0,0,0-0.1-0.1-0.1c0.2,0,0.3,0,0.4,0c0.6,0.1,1.3,0,1.9-0.1
			c0.8-0.3,1.6-0.6,2.4-1.1s1.3-1.1,1.7-2c0.4-0.8,0.6-1.5,0.6-2.3c0-0.5-0.1-1-0.3-1.4V7.2c0,0-0.1,0-0.1-0.1c0.1,0.1,0.1,0.1,0,0
			c0,0,0,0-0.1,0l0,0c-0.1,0-0.1,0-0.1-0.1c-0.3-0.3-0.6-0.4-1-0.4C10.8,6.4,10,6.7,9.2,7.1C8,7.8,7.1,8.7,6.3,10
			c-0.6,1-0.8,2-0.6,3.3c0,0.3,0.1,0.5,0.2,0.6c0,0.1,0,0.1,0,0.1c-0.1,0-0.1,0-0.1,0c-0.7-0.3-1.2-0.8-1.5-1.5
			c-0.2-0.5-0.2-1.1-0.1-1.8C4.3,10,4.5,9.2,4.9,8.6s0.9-1.1,1.4-1.7C7.2,6.3,8.1,5.8,9,5.4c0.2-0.1,0.5-0.1,0.7-0.3
			c0.1,0,0.2,0,0.3,0c0.4,0.1,0.8,0.1,1.2,0.1c0.1,0,0.1,0,0.2,0l0.1-0.1L11.5,5c-0.1,0-0.2-0.1-0.3-0.1c-0.4,0-0.8,0-1.2,0
			c-0.2,0.3-0.5,0-0.5-0.4C9.2,3.9,9.3,3.4,9.5,2.7c0.3-0.6,0.7-1.1,1.2-1.5c0.1,0,0.1,0,0.2,0c0.7,0.3,1.4,0.4,2.3,0.6
			c0.1,0,0.2,0,0.3,0.1l0,0l0,0c0.1,0,0.3,0,0.4,0.1l0,0l0.4,0.1c0.4,0.1,0.8,0.1,1.1,0c0.2,0,0.4-0.1,0.5-0.4
			C16.1,1.6,16,1.2,15.8,0.9z M6,12.3c0.1-0.8,0.3-1.3,0.6-1.9c0.7-1.3,1.7-2.3,2.9-3.1c0.4-0.3,0.9-0.4,1.4-0.5c0.2,0,0.4,0,0.6,0
			c0.5,0,1,0.3,1.3,0.6c0.3,0.4,0.4,0.9,0.4,1.4c-0.1,1-0.4,1.8-1,2.6c-0.8,1.1-1.9,2-3.1,2.6c-0.6,0.3-1.3,0.5-2,0.5
			c-0.3,0-0.6-0.1-0.9-0.1c-0.1,0-0.1-0.1-0.2-0.1C5.9,13.6,5.9,12.9,6,12.3z M15.6,2c-0.3,0.1-0.6,0.1-0.8,0.1
			c-0.7,0-1.4-0.1-2.1-0.4c-0.5-0.3-0.9-0.4-1.4-0.5L11,1.1l0.1-0.1c0.5-0.3,0.9-0.5,1.4-0.5c0.2,0,0.5,0,0.7-0.1
			c0.6,0,1.2,0.1,1.8,0.4c0.2,0.1,0.3,0.3,0.4,0.4C16,1.3,15.9,1.7,15.6,2z"/>
	</g>
</g>
</svg>
