<?xml version="1.0" encoding="utf-8"?>
<!-- Generator: Adobe Illustrator 27.2.0, SVG Export Plug-In . SVG Version: 6.00 Build 0)  -->
<svg version="1.1" id="Layer_1" xmlns="http://www.w3.org/2000/svg" xmlns:xlink="http://www.w3.org/1999/xlink" x="0px" y="0px"
	 viewBox="0 0 376.5 119.9" style="enable-background:new 0 0 376.5 119.9;" xml:space="preserve">
<style type="text/css">
	.st0{fill:#C8A872;}
</style>
<g>
	<path class="st0" d="M134.5,31.1c3.1,0,6.2,0,9.4,0c0,0.1,0.1,0.2,0.1,0.3c-0.3,0.1-0.6,0.3-1,0.4c-1.8,0.4-3.4,1.3-4.7,2.6
		c-1.1,1.1-2.2,2.2-3.3,3.4c-0.4,0.5-0.7,1,0,1.4c3.3,2.5,4.2,6.3,5.2,10c0.2,0.7,0.4,1.5,0.7,2.2c0.6,1.7,1.8,2.6,3.6,2.7
		c0.4,0,0.8,0.1,1.3,0.2c0,0.1,0,0.2,0,0.4c-1.5,0-3,0.1-4.4,0.1c-0.5,0-1,0-1.6,0c-1.7,0.1-2.4-0.5-2.8-2.1
		c-0.3-1.2-0.5-2.5-0.7-3.8c-0.5-2.7-1.7-5.1-4-6.7c-0.8-0.6-1.5-0.4-2.4,0c-2.5,1.3-2.9,3.4-2.5,5.9c0.1,0.4,0.1,0.9,0.1,1.3
		c0,2.3,0.3,4.5,3.3,4.9c-0.1,0.1-0.1,0.2-0.2,0.3c-0.5,0-1,0.1-1.5,0.1c-2.4,0-4.9,0-7.3,0.1c-1.3,0-1.4,0.4-0.6,1.4
		c2.4,3,3.2,6.5,3.1,10.2c-0.1,6.3-2,12-5.6,17.2c-4.3,6.1-10,10.8-16.2,14.8c-6.6,4.3-13.8,7.1-21.5,8.7
		c-5.9,1.2-11.9,1.7-17.9,1.2c-1.2-0.1-2.4,0-3.9,0c0.2,0.4,0.3,0.7,0.5,1c3.5,4.4,8.1,7.4,13.5,8.8c6.9,1.8,13.9,1.5,20.8-0.2
		c1.2-0.3,2.3-0.9,3.5-1.3c0.5-0.2,1-0.2,1.5-0.3c0.1,0.2,0.1,0.3,0.2,0.5c-0.5,0.3-0.9,0.7-1.4,0.8c-3.1,0.7-6.2,1.7-9.4,2
		c-3.6,0.4-7.4,0.4-11,0.1c-7.7-0.7-14.3-3.9-19.2-9.9c-1.5-1.8-3.2-2.7-5.3-3.2c-4.7-1.3-9.1-3.2-13.1-6.1
		c-5.3-3.9-9.1-8.8-9.8-15.6c-0.7-6.2,0.7-12.1,3.8-17.5c3.8-6.7,9.2-11.8,15.6-16c7.3-4.8,15.3-7.8,23.7-9.8
		c4.4-1,8.9-1.7,13.4-2.6c0.4-0.1,0.8-0.3,1.2-0.4c0-0.1,0-0.2,0.1-0.4c-0.8-0.5-1.6-1-2.4-1.5c-4.2-2.5-6.6-7.5-5.9-12.4
		c0.7-5.1,3.1-9.1,7-12.3c1.5-1.2,3.1-2.2,4.7-3.4c0.3-0.2,0.6-0.5,1.2-0.9c-0.7-0.3-1.2-0.6-1.7-0.7c-5.1-1-10.1-2.1-15.2-3
		C70,3,64.4,2.6,58.8,2.7c-13.3,0.4-25.9,3.5-37.1,11c-7.4,4.9-13.7,11-17,19.5c-2.6,6.6-3.3,13.4-0.9,20.2c1.3,3.8,3.7,6.8,7,9.1
		c3,2.1,6.3,2.5,9.9,1.9c0.4-0.1,0.8-0.2,1.1-0.4c0.3-0.2,0.6-0.7,0.5-1s-0.5-0.5-0.9-0.6c-0.2-0.1-0.6,0-0.8-0.1
		c-3.4-0.2-4.5-2.3-3.6-5.5c0.5-1.8,1.8-3,3.5-3.3c1.5-0.3,3.3-0.3,4.8-0.1c1.6,0.3,2.3,1.6,2.5,3.2c0.5,3.3-0.8,6.2-3.8,7.8
		c-4.7,2.4-9.5,2.1-13.9-0.7c-4.6-2.9-7.5-7.2-8.9-12.4C0.6,48.4,0,45.5,0,42.6C-0.1,35.9,1.8,29.7,5.4,24C12.7,12.8,23,5.8,36,2.7
		C43.1,1,50.4,0.2,57.7,0.6C64.6,1,71.4,1.8,78.2,3.2c5.2,1.1,10.3,2.3,15.5,3.3c0.6,0.1,1.3,0.1,1.8-0.1c6.6-3.1,13.6-4.6,20.9-5
		c7.1-0.5,14.1,0,21,2c3,0.9,6,2,8.4,4.2c2,1.8,2.5,4.4,1.2,6.4c-1,1.6-2.7,2.1-4.4,2.4c-3.6,0.7-7.2,0.4-10.7-0.1
		c-1.2-0.2-2.4-0.4-3.6-0.6c-0.8-0.1-1.1,0.2-1.2,0.9c0,0.4,0,0.8,0,1.2c0.1,6.5,0.1,13,0.2,19.4c0,1.4,0,2.9,0,4.3
		c0,1,0.4,1.3,1.2,0.8c2.9-2.1,5.7-4.3,7.8-7.2c0.2-0.3,0.4-0.6,0.5-0.9c0.5-1.2,0.1-1.9-1.1-2.3c-0.4-0.1-0.9-0.3-1.3-0.4
		C134.4,31.4,134.4,31.3,134.5,31.1z M67.2,107.6c6.4-0.1,12.6-1.4,18.6-3.6c11-4,20.5-10.4,28.5-18.8c5-5.3,8.6-11.3,9.1-18.8
		c0.2-3.9-1-7.3-3.8-10.1c-3.4-3.4-7.6-4.8-12.4-4.9c-1.9,0-3.9,0.2-5.8,0.4c-4.5,0.4-8.8,1.7-12.9,3.6C77.6,60.5,68.7,68,61.7,77.8
		c-3,4.2-5.1,8.8-6.1,14c-0.9,4.8-0.6,9.3,1.8,13.6c0.3,0.6,1,1.2,1.6,1.3C61.6,107,64.4,107.3,67.2,107.6z M119.8,17.1
		c0-0.1,0-0.2,0-0.3c0.4-0.1,0.8-0.1,1.1-0.2c1-0.1,2-0.2,3-0.3c0.4-0.1,0.8-0.4,1.2-0.6c-0.4-0.3-0.8-0.6-1.2-0.8
		c-0.8-0.3-1.6-0.3-2.5-0.5c-6.8-1.6-13.5-3.2-20.3-4.7c-0.6-0.1-1.4-0.1-1.9,0.2c-4.6,2.8-8.6,6.1-11.1,11
		c-2.2,4.3-2.9,8.8-1.5,13.5c0.8,2.6,3,4.2,5.1,4c3.7-0.2,7.4-0.3,11.1-0.3c1.1,0,2.2,0.4,3.3,0.7c0.3,0.1,0.7,0.6,0.8,1
		c0,0.2-0.5,0.6-0.9,0.7c-0.6,0.2-1.3,0.2-1.9,0.2c-3.8,0.1-7.6-0.2-11.3-1c-1-0.2-2.2-0.5-3.2-0.3c-2.2,0.3-4.4,0.8-6.5,1.5
		c-8.6,2.7-16.6,6.4-24.1,11.4c-5,3.3-9.5,7.1-13.1,11.8C42,69,39.5,74.5,38.7,80.8c-0.6,4.4-0.5,8.7,1.1,12.9
		c2.5,6.3,7.6,9.7,13.8,11.6c0.4,0.1,0.8-0.1,1.3-0.1c-0.1-0.4,0-0.8-0.2-1.2c-0.5-1.7-1.4-3.4-1.6-5.1c-1.4-8.9,0.6-17.1,5.8-24.4
		c6.6-9.3,15.3-16,25.7-20.5c7.6-3.3,15.6-4.6,23.9-3.8c3.6,0.3,7,1.4,9.9,3.6c1.7,1.3,4.2,0.6,4.9-1.4c0.3-0.8,0.4-1.8,0.4-2.7
		c-0.1-9-0.2-17.9-0.3-26.9c0-0.8-0.1-1.5-0.3-2.3c-0.3-1.5-1.1-2.6-2.6-3C120.3,17.4,120.1,17.2,119.8,17.1z M123.9,2.7
		c-2.3,0.2-4.7,0.3-7,0.6c-4.7,0.6-9.2,1.9-13.5,4.1c-0.4,0.2-0.6,0.6-0.9,0.9c0.3,0.3,0.6,0.7,1,0.8c4.2,1.2,8.4,2.5,12.7,3.6
		c6.5,1.7,13.2,2.8,20,3.1c2.7,0.1,5.4,0.2,7.9-0.9c2.6-1.2,3.3-4.2,1.2-6.2c-1.2-1.1-2.7-2.1-4.2-2.7
		C135.5,3.6,129.8,2.8,123.9,2.7z"/>
	<path class="st0" d="M213.3,54.7c-2.9,0-5.8,0-8.8,0c0.1-0.2,0.1-0.2,0.1-0.2c2.5-0.4,3-2.3,3-4.3c0.1-4.6,0.4-9.2-0.5-13.8
		c-0.6-2.7-2.3-4.6-4.5-4.9c-2.4-0.3-5,1.2-6.2,3.5c-1.3,2.6-1.2,5.3-1.4,8.1c-0.1,2.3,0,4.6,0,6.8c0,2.1,0.2,4,2.6,4.9
		c-3,0-6,0-9.1,0c0-0.1,0-0.3,0.1-0.3c2-0.3,2.5-1.7,2.6-3.5c0.2-2.3,0.4-4.5,0.5-6.8c0.1-6.8,0-13.6,0-20.4c0-0.7-0.1-1.4-0.1-2.2
		c-0.2-2.4-1-4.4-3.4-5.6c0.3-0.1,0.6-0.1,0.9-0.2c1.4,0,2.8,0,4.2,0c1.7,0,1.9,0.1,1.9,1.8c0,4.7,0,9.4,0,14.2
		c0,0.7,0.2,1.4,0.4,2.1c0.5-0.3,1.1-0.6,1.6-1c2.5-2,5.2-3,8.5-2.2c3.1,0.8,4.8,2.4,5.1,5.7s0.2,6.7,0.2,10.1c0,1.5-0.1,3,0,4.6
		C211.1,53.2,211.4,53.6,213.3,54.7z"/>
	<path class="st0" d="M263,30.7c1.8,0,3.6,0,5.5,0c0.3,0,0.7,0.6,0.8,1c0.2,0.9,0.2,1.8,0.4,2.7c0.1,0.4,0.3,0.8,0.4,1.1
		c0.3-0.2,0.6-0.4,0.9-0.7c0.5-0.5,0.9-1.1,1.4-1.6c2.7-2.7,6-3.1,9.5-2c2.6,0.8,3.5,3,3.7,5.4c0.2,3.9,0.1,7.9,0.1,11.9
		c0,0.9,0,1.8,0.1,2.8c0.1,1.4,0.8,2.4,2.2,2.8c0.2,0,0.3,0.1,0.4,0.2c0.1,0,0.1,0.1,0.2,0.3c-3.1,0-6.2,0-9.3,0
		c0-0.1,0-0.1-0.1-0.2c0.2-0.1,0.4-0.3,0.6-0.3c1.4-0.4,2.2-1.2,2.3-2.6c0.3-4.9,0.7-9.8-0.2-14.7c-0.1-0.6-0.3-1.2-0.6-1.8
		c-1.5-3.1-5.2-3.8-8-1.6c-1.9,1.5-2.8,3.6-3.4,5.8c-1,4-1,8.1-0.8,12.2c0.1,1.8,1,3,3,3.2c-0.1,0.1-0.1,0.2-0.2,0.3
		c-3.1,0-6.2,0-9.3,0c0-0.1,0-0.2-0.1-0.3c0.4-0.1,0.7-0.3,1.1-0.4c1.1-0.3,1.9-1,1.9-2.2c0.1-5.7,0.2-11.5,0.2-17.2
		c0-1.8-1.2-2.9-2.9-3.5C262.9,31,262.9,30.8,263,30.7z"/>
	<path class="st0" d="M335.9,54.8c-3.2,0-6.4,0-9.6,0c3-0.4,3.3-2.6,3.3-5c0-5.2,0-10.4,0-15.6c0-0.6-0.1-1.3-0.2-1.9
		c-0.2-1.6-0.9-2.8-2.7-3.2c0.6-0.1,1.1-0.2,1.7-0.2c4.5,0,9-0.1,13.5,0.2c2.3,0.2,4.1,1.7,4.7,4.1c0.6,2.3,0.2,4.4-1.6,6
		c-0.8,0.7-1.9,1-2.8,1.5c-0.4,0.2-0.7,0.6-1.1,0.9c0.3,0.3,0.5,0.8,0.9,1c1.9,1.1,3,2.7,3.4,4.9c0.1,0.6,0.2,1.2,0.3,1.8
		c0.6,2.6,1.5,4.9,4.6,5.5c-0.3,0-0.6,0.1-0.8,0.1c-1.2,0-2.3-0.1-3.5-0.2c-2.6-0.2-2.9-0.5-3.4-3.1c-0.4-1.9-0.7-3.9-1.2-5.9
		c-0.8-3.3-4.8-5.3-7.9-3.9c-0.3,0.2-0.7,0.7-0.7,1.1c0,3.1,0,6.2,0.3,9.2C333.1,53.8,334.5,54.4,335.9,54.8z M336.9,28.9
		c-1,0.1-2,0.2-3,0.4c-0.4,0.1-0.9,0.6-1,1c-0.2,3.2-0.2,6.4-0.3,9.6c0,1,0.5,1.5,1.5,1.4c1.7-0.2,3.5-0.3,5.2-0.8
		c2.1-0.6,3.8-2.9,4-5.1C343.5,31.4,341.1,29,336.9,28.9z"/>
	<path class="st0" d="M215.6,42.9c-0.3-6.1,4.9-12.6,12.1-12.6c7.3,0.1,11.9,5.9,11.9,11.9c-0.1,7.1-5.6,12.9-12.3,13
		C221.1,55.3,215.3,49.9,215.6,42.9z M219.7,42.7c0,3.3,0.5,6.4,2.6,9c1.6,2.1,3.7,3.1,6.4,2.7c2.3-0.3,3.7-1.9,4.9-3.6
		c3.1-4.7,2.6-12.6-1-17c-3.1-3.9-8-3.6-10.8,0.6C220.2,36.9,219.7,39.7,219.7,42.7z"/>
	<path class="st0" d="M165.3,50.8c-0.3,0.4-0.5,0.9-0.9,1.3c-3.5,3.4-7.7,4.1-12.1,2.6c-4.4-1.5-6.6-5-7.1-9.6s0.8-8.7,4.2-11.8
		c2.9-2.7,6.3-3.8,10.1-2.1c3.6,1.5,5.8,4.2,6.3,8.2c0.1,1.2-0.2,1.6-1.7,1.6c-4.2,0.1-8.4,0.1-12.6,0.2c-2.1,0-2.3,0.1-2.2,2.3
		c0,1.2,0,2.4,0.3,3.6c1.7,6.6,8.4,8.9,13.8,4.6c0.5-0.4,1-0.8,1.5-1.1C165,50.6,165.1,50.7,165.3,50.8z M154.7,40.3L154.7,40.3
		c1.4-0.1,2.9,0.1,4.3-0.1c2.2-0.2,3.2-1.4,2.8-3.6c-0.2-1.3-0.8-2.8-1.7-3.8c-1.9-2.4-4.5-2.5-7-0.7c-2.3,1.6-3.2,4-3.7,6.6
		c-0.2,1.2,0.1,1.5,1.3,1.6C152.1,40.4,153.4,40.3,154.7,40.3z"/>
	<path class="st0" d="M241.4,54.6c3-1,3.3-1.3,3.3-4.5c0-4.8,0-9.5,0-14.3c0-2.7-0.8-3.5-3.4-4.1c-0.1,0-0.2-0.1-0.6-0.4
		c0.8-0.2,1.3-0.4,1.9-0.4c1.5-0.1,3-0.1,4.6-0.2c0.8,0,1.1,0.3,1.1,1c0.1,1,0.1,1.9,0.3,2.9c0.1,0.4,0.4,0.7,0.6,1.1
		c0.3-0.3,0.7-0.5,1-0.8c0.8-0.9,1.4-1.9,2.3-2.7c1.6-1.4,3.4-2.2,5.6-1.6c1.9,0.5,2.9,2.6,2.2,4.5c-0.5,1.3-2,1.6-2.9,0.6
		c-0.4-0.4-0.6-0.9-0.9-1.4c-1-1.5-2.3-1.9-3.8-0.9c-2.5,1.6-3.7,4-3.8,6.8c-0.1,3.7-0.1,7.4,0,11.2c0,1.6,0.5,2,2.1,2.5
		c0.2,0.1,0.4,0.2,0.6,0.5C248,54.6,244.7,54.6,241.4,54.6z"/>
	<path class="st0" d="M178.4,54.7c-3.3,0-6.6,0-10,0c0.1-0.2,0.1-0.3,0.2-0.3c2.9-0.7,3.1-0.8,3.2-3.8c0.1-5.2,0-10.3-0.1-15.5
		c0-2.1-0.9-2.9-3-3.2c-0.2,0-0.4-0.1-0.7-0.5c0.5-0.1,0.9-0.3,1.4-0.3c1.6-0.1,3.2-0.1,4.8-0.1c0.7,0,1,0.3,1.1,0.9
		c0.1,1.1,0.2,2.2,0.3,3.3c0,0.4,0.1,0.8,0.3,1.6c0.5-0.6,0.7-0.9,1-1.2c1.2-1.3,2.2-2.7,3.5-3.8c1.3-1.1,2.9-1.3,4.5-1
		c1.9,0.4,3.1,2.4,2.5,4.2c-0.2,0.6-0.9,1.2-1.4,1.3s-1.2-0.4-1.8-0.8c-0.2-0.1-0.3-0.4-0.4-0.6c-1.4-2.2-3.2-2.5-5.1-0.6
		c-1.8,1.7-2.8,3.8-2.8,6.3c-0.1,3.4-0.2,6.7-0.1,10.1c0,1.8,0.5,3.5,3,3.6C178.6,54.4,178.5,54.5,178.4,54.7z"/>
	<path class="st0" d="M369.2,54.7c-3.8,0-7.6,0-11.4,0c0,0,0-0.1,0.1-0.2c2.9-0.7,3.9-1.8,3.9-4.8c0-6.2-0.2-12.3-0.2-18.5
		c0-1.1-0.5-1.6-1.7-1.7c-2.9,0-5.7,0.1-7.8,2.6c-0.7,0.8-1.2,1.7-2.1,2.5c0.2-1.7,0.4-3.3,0.8-5c0.1-0.3,0.9-0.6,1.4-0.6
		c1.6-0.1,3.2,0,4.8,0c5.7,0,11.4,0,17.1,0c2.3,0,2.2,0,2.3,2.3c0,1,0.2,2.1,0,3.3c-0.3-0.3-0.6-0.5-0.8-0.9c-2.1-3.8-5.8-4.2-9.6-4
		c-0.3,0-0.8,0.5-0.9,0.9c-0.2,0.5-0.2,1-0.2,1.5c0.1,6.1,0.1,12.2,0.2,18.3C365.2,53.2,366,53.8,369.2,54.7z"/>
	<path class="st0" d="M305.8,54.9c-2.7,0-5.1,0-7.5,0c3.4-1.4,3.7-4.7,4.8-7.5c2.3-5.7,4.3-11.4,6.5-17.2c0.1-0.2,0.1-0.5,0.3-0.7
		c0.2-0.3,0.5-0.6,0.8-0.9c0.2,0.3,0.6,0.6,0.7,0.9c1.4,3.6,2.8,7.1,4.2,10.7c1.4,3.6,2.7,7.3,4,10.9c0.6,1.7,1.7,3.1,3.5,3.7
		c-3.1,0-6.2,0-9.3,0v-0.1c2.7-0.8,3.1-1.5,2.2-4.2c-0.5-1.6-1.1-3.2-1.6-4.8c-0.3-0.8-0.7-1.2-1.6-1.2c-2.3,0-4.6,0-7,0
		c-0.9,0-1.5,0.4-1.7,1.3c-0.4,1.5-1,3-1.4,4.5c-0.6,2.3-0.1,3.2,2.1,4.1C305.2,54.6,305.4,54.7,305.8,54.9z M309.5,32.8
		c-0.3,0.4-0.6,0.5-0.6,0.7c-1.2,3-2.4,6.1-3.5,9.2c-0.3,0.8,0.2,1,0.9,1c2,0,3.9,0,5.9,0c1.4,0,1.6-0.3,1.1-1.6c-1-2.7-2-5.4-3.1-8
		C310,33.7,309.8,33.4,309.5,32.8z"/>
</g>
</svg>
